<svg version="1" xmlns="http://www.w3.org/2000/svg" width="682.667" height="682.667" viewBox="0 0 512.000000 512.000000"><path d="M152.3 111.3c-3.4 1.9-28.2 35.6-29.4 39.9-2.2 8.1 1.6 14 15.5 24.3l8 5.8-2.3 1.8c-3.6 2.9-12.5 5.8-22 7-11 1.5-24 .2-36.2-3.7-13.1-4.1-19.3-11.4-28.2-33.4-2.5-6.2-6.4-10-10.3-10-4.9 0-8 1.9-14.6 8.7-11.3 11.9-20.1 28.4-25.2 47.6-6.2 22.8-8.1 45.2-7.3 85.9.7 35.5 1.4 39.5 8.6 46.9 7.6 7.8 8.9 8 57.1 8.9 22.8.4 46 1.1 51.5 1.4 9.2.6 75.8 2.7 180 5.7 22.6.7 58.6 1.3 80 1.3 37.2.1 39.5 0 49.5-2.2 46.3-10.2 76.1-32.7 77.8-58.6.6-10.3-1.5-16.1-8.3-23.2-7.8-7.9-20.6-13.7-48.5-21.9-35.2-10.4-39.2-11.9-61.6-23.2l-21.1-10.7-1.2-5c-3-12.9-16.3-19.4-27.6-13.6l-4 2.1-6.8-3.3c-5.9-2.8-6.8-3.6-7.7-6.8-1.5-5.6-5-10.1-9.9-12.7-5.2-2.7-9.9-2.9-16.1-.7-4.4 1.5-4.6 1.5-10.7-1.3-5.9-2.6-6.3-3-6.3-6.2 0-1.9-1-5.5-2.1-7.9-4.7-9.6-17.2-13.2-26.9-7.6l-4.4 2.5-40.7-19.5c-24.7-11.9-41.8-19.6-43.5-19.6-1.6.1-3.9.6-5.1 1.3zm98.8 96.2c10 2.7 11.3 3.4 10.4 5.7-.6 1.5-97.2 89.5-99.7 90.9-.7.3-9.3.9-19.1 1.2-15.9.6-17.8.5-18.4-1-.4-1 .4-2.5 2.3-4.2 1.6-1.4 25.8-22.8 53.7-47.6 27.9-24.7 51.8-45.5 53-46.2 3.3-1.8 7.6-1.6 17.8 1.2zm55.3 18.1c5.6 1.5 10.5 3 11 3.5.6.6.2 1.8-1 3.3-3 3.9-75.2 69.5-78.7 71.7-2.8 1.7-5.1 1.9-19.4 1.9-9.2 0-16.4-.4-16.8-1-.7-1.2 2.4-4.4 16-16.7 6.1-5.4 24.8-22.3 41.8-37.6 26.6-24 31.1-27.7 33.9-27.7 1.7 0 7.7 1.2 13.2 2.6z"/><path d="M502.1 322.5c-9.1 17.1-32.9 31.3-66.1 39.2-18.7 4.5-53.2 4.3-248.5-1.7-35.2-1.1-68.9-2.2-75-2.6-6-.3-26.5-1-45.5-1.4l-34.5-.7-10.5-3.1c-12.5-3.8-13.4-3.8-16.1-1.1-2 2-2.1 2.9-1.7 12 .7 13.2 3.8 19.9 11.6 24.6 7.5 4.4 14.4 5.3 42.8 5.3 13.7 0 34.6.5 46.4 1 20 .9 95.9 3.3 192.5 6.1 22.6.7 60.1 1.3 83.5 1.3 40.9.1 42.9 0 53-2.2 47.5-10.5 78-34.4 78-61.3 0-5.1-2.9-13.9-5.8-17.6l-1.7-2.3-2.4 4.5z"/></svg>